#!OML:ASF Y:\EmotionMaleHayes\Project 1\Capture day 1\Session 1\Male1.ASF
:FULLY-SPECIFIED
:DEGREES
216
root -27.738 16.9775 0.947461 60.4474 86.0781 59.6721
lowerback 6.69249 1.4304 -2.63134
upperback 1.20766 1.74872 0.277009
thorax -2.59132 0.903431 1.60702
lowerneck -24.2832 2.27065 2.98938
upperneck 22.4337 2.62391 -1.70967
head 11.3831 1.25183 -0.681338
rclavicle -2.52457e-014 5.56597e-015
rhumerus -41.1885 10.4295 -89.558
rradius 36.777
rwrist -4.07435
rhand -8.06851 -34.1646
rfingers 7.12502
rthumb 17.8429 -63.3661
lclavicle -2.52457e-014 5.56597e-015
lhumerus -35.4872 -17.6494 88.4065
lradius 54.3418
lwrist 5.61711
lhand -17.5382 -27.7389
lfingers 7.12502
lthumb 8.71595 2.06112
rfemur 12.1711 -10.3559 8.86143
rtibia 2.56914
rfoot -20.6253 -8.49588
rtoes 8.76557
lfemur 2.20226 4.93107 -14.1741
ltibia 17.8747
lfoot -17.7538 9.34666
ltoes -12.6701
217
root -27.7169 16.9728 0.942273 57.7607 86.1644 57.0155
lowerback 6.82051 1.53122 -2.14529
upperback 1.33431 1.91928 0.328024
thorax -2.52625 0.983852 1.37012
lowerneck -24.1793 2.15003 2.95353
upperneck 22.1879 2.4918 -1.81373
head 11.2683 1.17433 -0.736844
rclavicle -2.08724e-015 -9.93923e-015
rhumerus -41.0583 10.7762 -89.6255
rradius 37.2055
rwrist -4.29985
rhand -8.21344 -34.4115
rfingers 7.12502
rthumb 17.7035 -63.6256
lclavicle -2.08724e-015 -9.93923e-015
lhumerus -35.837 -17.474 88.3058
lradius 54.3806
lwrist 5.03623
lhand -17.6282 -28.1109
lfingers 7.12502
lthumb 8.62911 1.69276
rfemur 12.2732 -10.6564 8.88301
rtibia 2.62221
rfoot -20.6225 -8.03556
rtoes 8.8304
lfemur 1.23793 5.61961 -13.9838
ltibia 19.9166
lfoot -17.8207 9.26149
ltoes -12.1941
218
root -27.696 16.9666 0.938053 56.9369 86.196 56.2525
lowerback 6.89939 1.63246 -1.79807
upperback 1.53562 2.08362 0.363512
thorax -2.35831 1.0622 1.19827
lowerneck -24.296 2.0369 3.02715
upperneck 22.0799 2.36882 -2.07692
head 11.2507 1.08808 -0.865798
rclavicle 1.2921e-015 7.15625e-015
rhumerus -40.7381 11.0762 -89.6489
rradius 37.5703
rwrist -4.59725
rhand -8.5097 -34.9807
rfingers 7.12502
rthumb 17.4184 -64.2202
lclavicle 1.2921e-015 7.15625e-015
lhumerus -36.1171 -17.4183 88.3197
lradius 54.6518
lwrist 5.94723
lhand -17.131 -28.0666
lfingers 7.12502
lthumb 9.10893 1.71673
rfemur 12.4499 -10.8863 8.80738
rtibia 2.6404
rfoot -20.7724 -7.7931
rtoes 7.78431
lfemur 0.388927 5.83423 -14.0692
ltibia 21.7397
lfoot -17.9539 9.44335
ltoes -10.7241
219
root -27.674 16.9574 0.935191 55.5459 86.4914 54.9209
lowerback 7.19108 1.70994 -1.24661
upperback 1.59019 2.22784 0.474998
thorax -2.4532 1.13211 0.982983
lowerneck -24.4097 1.93389 3.13301
upperneck 22.2151 2.25532 -2.32809
head 11.3242 1.01284 -0.994565
rclavicle -1.90336e-014 -3.97569e-016
rhumerus -40.5868 11.2565 -89.5803
rradius 37.9466
rwrist -4.87438
rhand -8.38459 -35.3239
rfingers 7.12502
rthumb 17.5388 -64.5528
lclavicle -1.90336e-014 -3.97569e-016
lhumerus -36.717 -17.7096 88.6324
lradius 54.5258
lwrist 5.75499
lhand -18.9234 -28.0149
lfingers 7.12502
lthumb 7.37906 1.83643
rfemur 12.6811 -11.2199 8.99573
rtibia 2.61846
rfoot -20.8106 -7.56256
rtoes 7.01435
lfemur -0.626356 6.14519 -13.8007
ltibia 23.8454
lfoot -17.9789 9.42561
ltoes -9.26048
220
root -27.6507 16.9495 0.932113 52.3048 86.8947 51.7858
lowerback 7.54742 1.78803 -0.567831
upperback 1.66069 2.38915 0.650304
thorax -2.56321 1.21002 0.757757
lowerneck -24.4523 1.80542 3.18166
upperneck 22.2631 2.12083 -2.55521
head 11.3494 0.926449 -1.10906
rclavicle -5.36719e-015 -7.95139e-016
rhumerus -40.5201 11.3984 -89.4109
rradius 38.4143
rwrist -5.01249
rhand -8.14407 -35.3704
rfingers 7.12502
rthumb 17.7702 -64.5784
lclavicle -5.36719e-015 -7.95139e-016
lhumerus -37.2717 -17.7696 88.9314
lradius 54.4742
lwrist 5.36406
lhand -20.6293 -27.4387
lfingers 7.12502
lthumb 5.73224 2.46372
rfemur 12.9672 -11.6334 9.30021
rtibia 2.58363
rfoot -20.6076 -7.23127
rtoes 6.61844
lfemur -1.7327 6.63325 -13.3212
ltibia 26.2042
lfoot -17.8749 9.23201
ltoes -7.58038
221
root -27.6258 16.9429 0.928628 48.1272 87.1921 47.6938
lowerback 7.64836 1.80277 -0.00528686
upperback 1.88821 2.46351 0.838324
thorax -2.37076 1.24645 0.630341
lowerneck -24.5987 1.73835 3.20201
upperneck 22.1862 2.07329 -2.7849
head 11.3491 0.873794 -1.20479
rclavicle -1.49089e-014 -7.95139e-015
rhumerus -40.1938 11.8393 -89.3027
rradius 38.841
rwrist -5.19182
rhand -8.17979 -35.4976
rfingers 7.12502
rthumb 17.7358 -64.7087
lclavicle -1.49089e-014 -7.95139e-015
lhumerus -37.4996 -17.1334 88.904
lradius 54.5417
lwrist 6.13861
lhand -19.2863 -27.367
lfingers 7.12502
lthumb 7.02878 2.49625
rfemur 13.2247 -11.6855 9.65635
rtibia 2.454
rfoot -20.4857 -6.98754
rtoes 7.44064
lfemur -2.82434 7.1367 -12.9469
ltibia 28.4009
lfoot -17.6627 9.08177
ltoes -4.86377
222
root -27.6003 16.9344 0.923264 41.2716 87.4333 40.8212
lowerback 7.8967 1.84884 0.609971
upperback 1.9172 2.58328 1.00178
thorax -2.46083 1.30447 0.434551
lowerneck -24.6654 1.65272 3.17874
upperneck 22.2462 1.99406 -2.89886
head 11.3825 0.820697 -1.25669
rclavicle -2.68359e-015 -1.43125e-014
rhumerus -40.0582 12.2699 -89.2641
rradius 39.293
rwrist -5.60436
rhand -8.16856 -35.6593
rfingers 7.12502
rthumb 17.7466 -64.8695
lclavicle -2.68359e-015 -1.43125e-014
lhumerus -38.213 -16.805 89.0995
lradius 54.4205
lwrist 5.85634
lhand -18.6264 -27.6404
lfingers 7.12502
lthumb 7.66574 2.20069
rfemur 13.294 -11.5907 10.1489
rtibia 2.40257
rfoot -20.5122 -6.89553
rtoes 8.21816
lfemur -4.01415 7.79861 -12.5262
ltibia 30.4984
lfoot -17.2269 9.14419
ltoes -3.63032
223
root -27.5705 16.928 0.911581 34.5934 87.6336 34.1611
lowerback 8.02553 1.9179 1.26166
upperback 2.0573 2.73699 1.12141
thorax -2.3639 1.38125 0.176514
lowerneck -24.7195 1.55205 3.18331
upperneck 22.2553 1.8654 -2.95644
head 11.3921 0.754928 -1.30047
rclavicle -2.10712e-014 2.22639e-014
rhumerus -39.7221 12.525 -89.1159
rradius 39.6893
rwrist -6.10302
rhand -8.004 -35.6664
rfingers 7.12502
rthumb 17.905 -64.8621
lclavicle -2.10712e-014 2.22639e-014
lhumerus -38.7775 -16.5859 89.2437
lradius 54.2863
lwrist 5.66095
lhand -18.5396 -28.0277
lfingers 7.12502
lthumb 7.74951 1.81032
rfemur 13.3945 -11.6185 10.5004
rtibia 2.43737
rfoot -20.5372 -6.90988
rtoes 7.65968
lfemur -5.15755 8.31033 -12.2459
ltibia 32.5352
lfoot -16.7556 9.45572
ltoes -4.02194
224
root -27.5349 16.9265 0.89099 34.753 87.6199 34.4885
lowerback 8.12665 1.9495 1.60299
upperback 2.33025 2.81264 1.1434
thorax -2.12247 1.42402 0.00355064
lowerneck -24.7527 1.52453 3.3518
upperneck 22.1496 1.81336 -3.16064
head 11.3603 0.717698 -1.41209
rclavicle -7.85199e-015 -8.74653e-015
rhumerus -39.1457 12.7859 -88.9541
rradius 39.8779
rwrist -6.35898
rhand -7.91089 -35.4239
rfingers 7.12502
rthumb 17.9946 -64.6114
lclavicle -7.85199e-015 -8.74653e-015
lhumerus -39.0662 -16.1482 89.3155
lradius 53.8713
lwrist 5.52422
lhand -18.6433 -28.4052
lfingers 7.12502
lthumb 7.64948 1.43645
rfemur 13.7251 -11.7148 10.2052
rtibia 2.45778
rfoot -20.5579 -6.80413
rtoes 6.58899
lfemur -6.02107 8.45807 -12.5247
ltibia 34.1881
lfoot -16.5705 9.89294
ltoes -2.49383
225
root -27.5177 16.9174 0.887317 34.3581 87.7498 34.1396
lowerback 8.57816 1.95115 1.84569
upperback 2.35203 2.85208 1.20791
thorax -2.34098 1.44283 -0.0868343
lowerneck -24.6293 1.47488 3.37417
upperneck 21.9517 1.74442 -3.206
head 11.2608 0.682414 -1.44251
rclavicle -1.2921e-014 3.18055e-015
rhumerus -38.8139 13.0522 -88.9117
rradius 40.1392
rwrist -6.53569
rhand -7.9463 -35.1605
rfingers 7.12502
rthumb 17.9605 -64.3512
lclavicle -1.2921e-014 3.18055e-015
lhumerus -39.5953 -15.7945 89.4454
lradius 53.4279
lwrist 5.61802
lhand -18.5755 -28.6009
lfingers 7.12502
lthumb 7.71485 1.23833
rfemur 13.9066 -11.5602 10.3218
rtibia 2.36716
rfoot -20.7185 -7.00498
rtoes 5.70746
lfemur -7.16269 8.76037 -12.5059
ltibia 35.7457
lfoot -16.3648 9.91173
ltoes -1.36172
226
root -27.5038 16.9124 0.889051 16.6776 88.1095 16.4409
lowerback 8.9118 1.98795 2.53584
upperback 2.46489 2.99005 1.55467
thorax -2.3903 1.51388 -0.139952
lowerneck -24.7069 1.35016 3.09721
upperneck 21.7356 1.62799 -3.08412
head 11.1857 0.619227 -1.36959
rclavicle -3.47873e-015 1.74931e-014
rhumerus -38.3156 13.4526 -88.6579
rradius 40.5502
rwrist -6.92075
rhand -7.92885 -35.294
rfingers 7.12502
rthumb 17.9773 -64.4831
lclavicle -3.47873e-015 1.74931e-014
lhumerus -40.0658 -15.4484 89.6841
lradius 53.2674
lwrist 5.96821
lhand -18.2278 -28.2753
lfingers 7.12502
lthumb 8.05049 1.55132
rfemur 13.9537 -11.0006 11.4733
rtibia 2.16759
rfoot -20.8822 -7.54527
rtoes 5.8483
lfemur -8.35493 9.11614 -11.6394
ltibia 37.1138
lfoot -16.1876 9.46242
ltoes -2.98989
227
root -27.4775 16.9091 0.8815 -3.61768 88.2222 -4.00522
lowerback 8.97612 2.01016 3.29578
upperback 2.57157 3.10411 1.82217
thorax -2.28763 1.57486 -0.299818
lowerneck -24.7732 1.25729 2.99214
upperneck 21.5797 1.54205 -3.13302
head 11.136 0.562971 -1.38342
rclavicle 6.4605e-015 1.59028e-015
rhumerus -37.773 13.8192 -88.4662
rradius 40.9584
rwrist -7.03882
rhand -7.90732 -35.7745
rfingers 7.12502
rthumb 17.998 -64.9617
lclavicle 6.4605e-015 1.59028e-015
lhumerus -40.7404 -15.0049 89.8709
lradius 53.0855
lwrist 5.52868
lhand -18.6951 -28.647
lfingers 7.12502
lthumb 7.5995 1.19651
rfemur 13.9106 -10.7945 12.3936
rtibia 2.02035
rfoot -20.8978 -7.77126
rtoes 6.0971
lfemur -9.54943 9.39168 -10.9993
ltibia 38.1428
lfoot -16.0484 8.52657
ltoes -5.73111
228
root -27.4367 16.9027 0.862444 -10.137 88.2525 -10.6813
lowerback 8.8871 2.02779 3.72308
upperback 2.67418 3.16596 1.93358
thorax -2.11341 1.61112 -0.422677
lowerneck -24.77 1.2055 2.98421
upperneck 21.4403 1.51097 -3.29287
head 11.0835 0.526432 -1.44489
rclavicle 6.36111e-015 8.74653e-015
rhumerus -37.3556 14.0764 -88.2882
rradius 41.5014
rwrist -7.00791
rhand -7.8283 -36.337
rfingers 7.12502
rthumb 18.074 -65.5172
lclavicle 6.36111e-015 8.74653e-015
lhumerus -41.4793 -14.4177 89.9834
lradius 53.0072
lwrist 5.46434
lhand -18.3993 -28.6354
lfingers 7.12502
lthumb 7.88499 1.19755
rfemur 13.9605 -11.4296 12.3189
rtibia 2.0434
rfoot -20.807 -7.16213
rtoes 5.71873
lfemur -10.5725 9.59593 -11.0554
ltibia 38.6542
lfoot -15.7011 7.43869
ltoes -8.46228
229
root -27.4008 16.8942 0.844576 -17.7874 88.2723 -18.433
lowerback 8.95219 2.04315 4.21462
upperback 2.77618 3.23627 1.9805
thorax -2.01639 1.65121 -0.654758
lowerneck -24.8042 1.1487 3.04176
upperneck 21.3324 1.41884 -3.34853
head 11.047 0.48105 -1.4892
rclavicle -4.65156e-014 -8.74653e-015
rhumerus -36.8371 14.1323 -88.1461
rradius 41.9073
rwrist -7.15289
rhand -7.8317 -36.3649
rfingers 7.12502
rthumb 18.0708 -65.5455
lclavicle -4.65156e-014 -8.74653e-015
lhumerus -42.0822 -14.0003 90.0339
lradius 52.6882
lwrist 5.44748
lhand -18.1018 -28.4916
lfingers 7.12502
lthumb 8.17206 1.33039
rfemur 14.0788 -11.9296 12.3234
rtibia 1.98991
rfoot -20.7644 -6.71315
rtoes 5.48791
lfemur -11.559 9.81779 -11.0275
ltibia 38.8673
lfoot -15.265 6.30059
ltoes -10.8902
230
root -27.3736 16.8884 0.835801 -28.7066 88.2037 -29.4506
lowerback 9.16793 2.06159 4.68264
upperback 2.83963 3.32212 2.07108
thorax -2.04451 1.69673 -0.83793
lowerneck -24.7904 1.1014 3.22519
upperneck 21.1966 1.31697 -3.49209
head 10.9924 0.43065 -1.58763
rclavicle 1.2921e-014 5.08889e-014
rhumerus -36.2216 14.2556 -88.0613
rradius 42.1357
rwrist -7.16738
rhand -8.0291 -36.4798
rfingers 7.12502
rthumb 17.8808 -65.6778
lclavicle 1.2921e-014 5.08889e-014
lhumerus -42.7051 -13.6149 90.1703
lradius 52.229
lwrist 5.0467
lhand -18.0069 -27.5858
lfingers 7.12502
lthumb 8.2637 2.23262
rfemur 14.1699 -11.7433 12.8152
rtibia 1.75533
rfoot -20.8104 -7.00275
rtoes 5.34889
lfemur -12.5934 9.95505 -10.756
ltibia 38.9484
lfoot -15.0412 5.31726
ltoes -11.7378
